<svg width="800" height="600" viewBox="0 0 800 600" xmlns="http://www.w3.org/2000/svg">
  <style>
    @import url('https://fonts.googleapis.com/css2?family=Inter:wght@400;600');
    text { font-family: 'Inter', sans-serif; }
    .header { font-size: 24px; font-weight: 600; fill: #E5E7EB; }
    .title { font-size: 14px; font-weight: 400; fill: #9CA3AF; }
    .value { font-size: 20px; font-weight: 600; fill: #F9FAFB; }
    .subtext { font-size: 12px; fill: #6B7280; }
    .featured-repo { border: 2px solid #374151; border-radius: 12px; }
  </style>

  <!-- Fondo principal -->
  <rect width="800" height="600" fill="#111827"/>

  <!-- Header -->
  <text x="40" y="50" class="header">GitHub Analytics</text>
  <text x="760" y="50" class="subtext" text-anchor="end">29 de marzo de 2025, 06:17:23 p. m.</text>

  <!-- Sección de Lenguajes -->
  <g transform="translate(40, 80)">
    <text class="title">Top Languages</text>
    
    <!-- Lenguaje 1 -->
    <g transform="translate(0, 30)">
      <text class="value">1. JavaScript</text>
      <text x="300" y="0" class="value" text-anchor="end">29.3</text>
      <rect x="0" y="10" width="300" height="4" rx="2" fill="#374151"/>
      <rect x="0" y="10" width="calc(300 * 29.3 / 100)" height="4" rx="2" fill="#F59E0B"/>
    </g>
    
    <!-- Lenguaje 2 -->
    <g transform="translate(0, 70)">
      <text class="value">2. HTML</text>
      <text x="300" y="0" class="value" text-anchor="end">22.0</text>
      <rect x="0" y="10" width="300" height="4" rx="2" fill="#374151"/>
      <rect x="0" y="10" width="calc(300 * 22.0 / 100)" height="4" rx="2" fill="#E4552E"/>
    </g>
    
    <!-- Lenguaje 3 -->
    <g transform="translate(0, 110)">
      <text class="value">3. TypeScript</text>
      <text x="300" y="0" class="value" text-anchor="end">14.6</text>
      <rect x="0" y="10" width="300" height="4" rx="2" fill="#374151"/>
      <rect x="0" y="10" width="calc(300 * 14.6 / 100)" height="4" rx="2" fill="#6366F1"/>
    </g>

    <!-- Lenguaje 4 -->
    <g transform="translate(0, 150)">
      <text class="value">3. Python</text>
      <text x="300" y="0" class="value" text-anchor="end">7.3</text>
      <rect x="0" y="10" width="300" height="4" rx="2" fill="#374151"/>
      <rect x="0" y="10" width="calc(300 * 7.3 / 100)" height="4" rx="2" fill="#3B72A1"/>
    </g>

    <!-- Lenguaje 5 -->
    <g transform="translate(0, 190)">
      <text class="value">3. CSS</text>
      <text x="300" y="0" class="value" text-anchor="end">7.3</text>
      <rect x="0" y="10" width="300" height="4" rx="2" fill="#374151"/>
      <rect x="0" y="10" width="calc(300 * 7.3 / 100)" height="4" rx="2" fill="#6B399C"/>
    </g>
  </g>

  <!-- Sección del Repositorio Destacado -->
  <g transform="translate(40, 312)" class="featured-repo">
    <text class="title">Featured Repository</text>
    <text x="0" y="30" class="value">NeoTecs</text>
    <text x="0" y="55" class="subtext">⭐ 7 stars</text>
    
    <!-- Círculo de commits -->
    <g transform="translate(150, 133)">
      <circle cx="0" cy="0" r="60" stroke="#374151" stroke-width="10" fill="none"/>
      <circle cx="0" cy="0" r="60" stroke="#6366F1" stroke-width="10" 
              stroke-dasharray="calc(377 * 3279 / 365) 377" 
              transform="rotate(-90 0 0)"/>
      <text y="0" text-anchor="middle" class="value">3279</text>
      <text y="15" text-anchor="middle" class="subtext">Commits 2024</text>
    </g>
  </g>

  <!-- Estadísticas -->
  <g transform="translate(400, 80)">
    <text class="title">Account Stats</text>
    
    <!-- Repositorios -->
    <g transform="translate(0, 40)">
      <text class="title">Public Repos</text>
      <text x="0" y="25" class="value">41</text>
    </g>
    
    <!-- Estrellas -->
    <g transform="translate(0, 90)">
      <text class="title">Total Stars</text>
      <text x="0" y="25" class="value">85</text>
    </g>
    
    <!-- Seguidores -->
    <g transform="translate(0, 140)">
      <text class="title">Followers</text>
      <text x="0" y="25" class="value">274</text>
    </g>
    
    <!-- Siguiendo -->
    <g transform="translate(0, 190)">
      <text class="title">Following</text>
      <text x="0" y="25" class="value">242</text>
    </g>
    
    <!-- Commits 2025 -->
    <g transform="translate(0, 240)">
      <text class="title">Commits 2025</text>
      <text x="0" y="25" class="value">2440</text>
    </g>
  </g>
  
  <!-- Pie de página -->
  <text x="620" y="570" class="subtext">github.com/solidsnk86</text>
</svg>